<?xml version="1.0" encoding="utf-8"?>
<!-- Generator: Adobe Illustrator 16.0.0, SVG Export Plug-In . SVG Version: 6.00 Build 0)  -->
<!DOCTYPE svg PUBLIC "-//W3C//DTD SVG 1.1 Tiny//EN" "http://www.w3.org/Graphics/SVG/1.1/DTD/svg11-tiny.dtd">
<svg version="1.1" baseProfile="tiny" id="Selected_Items"
	 xmlns="http://www.w3.org/2000/svg" xmlns:xlink="http://www.w3.org/1999/xlink" x="0px" y="0px" width="500px" height="250px"
	 viewBox="0 0 500 250" xml:space="preserve">
<path fill-rule="evenodd" fill="#F4BD38" d="M493.3,80.65c1.867,1.867,4.101,2.8,6.7,2.8v15c-2.6,0-4.833,0.933-6.7,2.8
	c-1.866,1.867-2.8,4.117-2.8,6.75s0.934,4.867,2.8,6.7c1.867,1.9,4.101,2.85,6.7,2.85v14.9c-2.6,0-4.833,0.934-6.7,2.8
	c-1.866,1.9-2.8,4.15-2.8,6.75c0,2.667,0.934,4.917,2.8,6.75c1.867,1.866,4.101,2.8,6.7,2.8v15c-2.6,0-4.833,0.934-6.7,2.8
	c-1.866,1.867-2.8,4.117-2.8,6.75c0,2.601,0.934,4.834,2.8,6.7c1.867,1.867,4.101,2.8,6.7,2.8v14.95
	c-13.6,0-25.217,4.834-34.85,14.5c-9.601,9.667-14.4,21.316-14.4,34.95H49.2c0-13.634-4.8-25.283-14.4-34.95
	c-9.633-9.666-21.233-14.5-34.8-14.5V185.6c2.6,0,4.817-0.933,6.65-2.8c1.867-1.866,2.8-4.1,2.8-6.7c0-2.633-0.934-4.883-2.8-6.75
	c-1.833-1.866-4.05-2.8-6.65-2.8v-15c2.6,0,4.817-0.934,6.65-2.8c1.867-1.866,2.8-4.116,2.8-6.75c0-2.6-0.934-4.85-2.8-6.75
	c-1.833-1.866-4.05-2.8-6.65-2.8v-14.9c2.6,0,4.817-0.95,6.65-2.85c1.867-1.867,2.8-4.1,2.8-6.7c0-2.633-0.934-4.883-2.8-6.75
	c-1.833-1.867-4.05-2.8-6.65-2.8v-15c2.6,0,4.817-0.934,6.65-2.8c1.867-1.833,2.8-4.066,2.8-6.7s-0.934-4.883-2.8-6.75
	C4.817,65.333,2.6,64.4,0,64.4V49.45c13.567,0,25.167-4.833,34.8-14.5C44.4,25.283,49.2,13.633,49.2,0h401.55
	c0,13.633,4.8,25.283,14.4,34.95c9.633,9.667,21.25,14.5,34.85,14.5V64.4c-2.6,0-4.833,0.934-6.7,2.8
	c-1.866,1.867-2.8,4.117-2.8,6.75S491.434,78.817,493.3,80.65z"/>
<path fill-rule="evenodd" fill="#3C3635" d="M416.55,27.6v56.75h55.9v-12.4c-10.066-3.867-18.967-9.684-26.7-17.45
	c-7.7-7.733-13.5-16.7-17.4-26.9H416.55z M431.6,24.95c3.667,10.133,9.317,19.033,16.95,26.7c7.634,7.667,16.5,13.35,26.601,17.05
	l1.3,0.5V180.85l-1.3,0.45c-10.101,3.7-18.967,9.384-26.601,17.05c-7.633,7.667-13.283,16.567-16.95,26.7l-0.5,1.351H68.85
	l-0.5-1.351c-3.667-10.133-9.317-19.033-16.95-26.7c-7.633-7.666-16.483-13.35-26.55-17.05l-1.35-0.45V69.2l1.35-0.5
	C34.917,65,43.767,59.317,51.4,51.65c7.633-7.667,13.283-16.566,16.95-26.7l0.5-1.35H431.1L431.6,24.95z M416.55,88.35v73.35h55.9
	V88.35H416.55z M472.45,178.05V165.65h-55.9v56.699h11.8c3.9-10.166,9.7-19.116,17.4-26.85
	C453.417,187.8,462.316,181.983,472.45,178.05z M383.45,201.3l2.399-7.45l2.4,7.45h7.8l-6.35,4.55l2.399,7.45l-6.25-4.6l-6.3,4.6
	l2.4-7.45l-6.3-4.55H383.45z M325.2,213.3l2.399-7.45l-6.25-4.55h7.75l2.4-7.45l2.35,7.45h7.801l-6.301,4.55l2.45,7.45l-6.3-4.6
	L325.2,213.3z M412.55,27.6H87.4v194.75h325.15V27.6z M83.4,27.6H71.6c-3.9,10.2-9.7,19.167-17.4,26.9
	c-7.733,7.767-16.633,13.583-26.7,17.45v12.4h55.9V27.6z M27.5,178.05c10.133,3.934,19.033,9.75,26.7,17.45
	c7.7,7.733,13.5,16.684,17.4,26.85h11.8V165.65H27.5V178.05z M27.5,161.7h55.9V88.35H27.5V161.7z M111.7,201.3l2.4-7.45l2.4,7.45
	h7.8l-6.3,4.55l2.4,7.45l-6.3-4.6l-6.25,4.6l2.4-7.45l-6.35-4.55H111.7z M270.85,213.3l2.45-7.45l-6.35-4.55h7.8l2.4-7.45
	l2.399,7.45h7.8l-6.3,4.55l2.4,7.45l-6.3-4.6L270.85,213.3z M220.4,201.3l2.4-7.45l2.4,7.45h7.8l-6.35,4.55l2.45,7.45l-6.3-4.6
	l-6.3,4.6l2.4-7.45l-6.3-4.55H220.4z M172.35,205.85l2.4,7.45l-6.3-4.6l-6.3,4.6l2.45-7.45l-6.3-4.55h7.8l2.35-7.45l2.4,7.45h7.75
	L172.35,205.85z"/>
<text transform="matrix(1 0 0 1 144 135)" font-family="'MyriadPro-Regular'" font-size="60">w</text>
<text transform="matrix(1 0 0 1 187.5601 135)" font-family="'MyriadPro-Regular'" font-size="60">e</text>
<text transform="matrix(1 0 0 1 217.6191 135)" font-family="'MyriadPro-Regular'" font-size="60">l</text>
<text transform="matrix(1 0 0 1 231.7793 135)" font-family="'MyriadPro-Regular'" font-size="60">c</text>
<text transform="matrix(1 0 0 1 258.2988 135)" font-family="'MyriadPro-Regular'" font-size="60">o</text>
<text transform="matrix(1 0 0 1 291.2383 135)" font-family="'MyriadPro-Regular'" font-size="60">m</text>
<text transform="matrix(1 0 0 1 341.2783 135)" font-family="'MyriadPro-Regular'" font-size="60">e</text>
</svg>
