
<svg xmlns="http://www.w3.org/2000/svg" version="1.1" xmlns:xlink="http://www.w3.org/1999/xlink" preserveAspectRatio="none" x="0px" y="0px" width="330px" height="400px" viewBox="0 0 330 400">

<g>
<path fill="#1A1A1A" stroke="none" d="
M 253.35 82.85
Q 252.6 85.45 250.05 86.5 247.5 87.55 245.05 86.15 226.95 75.55 207.4 69.95 187.05 64.25 166.25 64.25 137.35 64.25 107.75 74.5 98.45 77.8 90.25 81.7 83.85 84.95 83.7 85 81.45 86.3 78.95 85.3 76.55 84.35 75.65 81.8 73.1 74 68.6 55.35 63.65 33.85 61.65 25.3 56.7 37.5 53.45 50.25 48.9 71.7 48.1 101.3 47.5 121.05 48.45 136.2 48.6 138.35 47.2 140 45.8 141.6 43.65 141.75
L 43.3 141.75
Q 41.3 141.75 39.8 140.35 38.3 138.95 38.15 136.9 37.9 133 37.8 129.05 8.3 180 11.85 241.15 12.35 250.05 13.55 258.8 19.6 292.75 33.6 318.75 42.05 334.3 49.6 341.55 51.15 343 51.2 345.15 51.3 347.3 49.85 348.9 48.35 350.5 46.05 350.5 44 350.5 42.6 349.15 35.65 342.6 28.55 330.95 29.2 342.2 28.95 354.75 80.9 368.1 165.35 388.55 204.55 380.6 301.5 354.85 301.15 343.05 302.25 330.5 295.4 342.3 288.8 348.75 287.35 350.2 285.25 350.2 283.1 350.2 281.55 348.6 280 347.05 280.05 344.9 280.1 342.75 281.7 341.3 288.8 334.15 296.75 318.9 308.8 295.8 314.85 266.2 319.8 238.1 318.35 212.6 316.8 185.4 308.25 162.95 299.7 140.45 292.05 130.1
L 291.7 129.6 291.35 134.7
Q 291.2 136.95 289.7 138.9 288.1 141.1 286.25 141.1
L 285.8 141.05
Q 283.7 140.9 282.3 139.3 280.85 137.6 281.05 135.45 281.25 133.15 281.9 128.5 282.4 124.4 282.55 121.5 282.25 120.45 282.35 119.35 282.65 116.35 282.85 113.35 283.2 98.7 282.7 84.1 282.65 82.55 282.55 81.05 281.65 70.5 279.65 60.4 275.7 40.45 268.05 23.9 262.25 49.3 253.35 82.85 Z"/>



<path fill="#000000" stroke="none" d="
M 259.55 4.65
Q 257 18.4 251.8 40.4 247.15 60.2 243.9 71.75 206.15 51.85 166.25 51.85 125.8 51.85 84.75 70.45 80.85 57.1 74.8 29.55 71.75 15.8 69.45 4.45 69.1 2.7 67.75 1.5 66.4 0.3 64.65 0.05 62.85 -0.15 61.3 0.65 59.7 1.5 58.85 3.1 42.85 34.5 37.85 71.05 34.85 93.25 36.25 110.25
L 33.5 114.15
Q 12.6 146.7 4.65 184.4 -1.4 213.1 0.45 242.65 1.8 264.25 6.95 284.4 9.5 294.1 12.35 301.6 16.55 312.45 17.5 336.6 17.9 348.75 17.5 358.9 17.4 360.9 18.6 362.55 19.85 364.15 21.75 364.65 82.65 380.35 163.9 399.85 164.5 400 165.25 400
L 166.3 399.9
Q 194.25 394.3 253.95 379 283.9 371.35 308.8 364.6 310.8 364.1 311.9 362.5 313.1 360.85 313 358.8 311.75 337.8 316.15 313.05 317.5 305.2 319.25 298 320.8 292.25 320.8 292.15
L 320.85 291.95
Q 331.9 248.95 329.6 211 327.85 182.1 318.55 158.15 312.45 142.35 304.7 127.95 297.8 115.1 293.9 111.15 295.05 96.65 294 84.2 293.2 74.1 290.3 58.9 287.95 41.55 283.2 32.6 280.55 25 279.15 21.1 276.75 14.35 274.7 10.55 272.15 5.8 269.7 2.35 268.7 0.95 267.05 0.35 265.45 -0.25 263.8 0.15 262.2 0.5 261 1.75 259.85 3 259.55 4.65
M 250.05 86.5
Q 252.6 85.45 253.35 82.85 262.25 49.3 268.05 23.9 275.7 40.45 279.65 60.4 281.65 70.5 282.55 81.05 282.65 82.55 282.7 84.1 283.2 98.7 282.85 113.35 282.65 116.35 282.35 119.35 282.25 120.45 282.55 121.5 282.4 124.4 281.9 128.5 281.25 133.15 281.05 135.45 280.85 137.6 282.3 139.3 283.7 140.9 285.8 141.05
L 286.25 141.1
Q 288.1 141.1 289.7 138.9 291.2 136.95 291.35 134.7
L 291.7 129.6 292.05 130.1
Q 299.7 140.45 308.25 162.95 316.8 185.4 318.35 212.6 319.8 238.1 314.85 266.2 308.8 295.8 296.75 318.9 288.8 334.15 281.7 341.3 280.1 342.75 280.05 344.9 280 347.05 281.55 348.6 283.1 350.2 285.25 350.2 287.35 350.2 288.8 348.75 295.4 342.3 302.25 330.5 301.15 343.05 301.5 354.85 204.55 380.6 165.35 388.55 80.9 368.1 28.95 354.75 29.2 342.2 28.55 330.95 35.65 342.6 42.6 349.15 44 350.5 46.05 350.5 48.35 350.5 49.85 348.9 51.3 347.3 51.2 345.15 51.15 343 49.6 341.55 42.05 334.3 33.6 318.75 19.6 292.75 13.55 258.8 12.35 250.05 11.85 241.15 8.3 180 37.8 129.05 37.9 133 38.15 136.9 38.3 138.95 39.8 140.35 41.3 141.75 43.3 141.75
L 43.65 141.75
Q 45.8 141.6 47.2 140 48.6 138.35 48.45 136.2 47.5 121.05 48.1 101.3 48.9 71.7 53.45 50.25 56.7 37.5 61.65 25.3 63.65 33.85 68.6 55.35 73.1 74 75.65 81.8 76.55 84.35 78.95 85.3 81.45 86.3 83.7 85 83.85 84.95 90.25 81.7 98.45 77.8 107.75 74.5 137.35 64.25 166.25 64.25 187.05 64.25 207.4 69.95 226.95 75.55 245.05 86.15 247.5 87.55 250.05 86.5
M 252.8 262.3
Q 254.25 260.75 254.25 258.6 254.3 256.5 252.85 254.9 251.3 253.35 249.15 253.35
L 248.85 253.35
Q 234.15 253.35 214.05 262.9 202.45 268.35 191.9 275.5 186.35 275.95 184.9 274.05 183.7 272.5 183.95 269 184.15 266.35 185 264.1 185.7 262.05 184.85 260.15 183.95 258.2 182 257.4 180 256.7 178 257.55 176.05 258.45 175.35 260.45 174 264.05 173.7 268.1 173.05 275.65 176.8 280.4 181.1 286 190.2 286 191.95 286 194.35 285.75 195.7 285.6 196.7 284.8 196.8 284.75 201.9 281.45 208.25 277.45 214.6 274.2 235.05 263.75 248.85 263.75
L 249.1 263.75
Q 251.25 263.75 252.8 262.3
M 277.5 270.2
Q 276.95 268.85 275.6 268.15 274.25 267.45 272.85 267.8 269.55 268.5 266.15 270.75 251.25 277.7 226.4 282.85 224.1 283.15 221.85 283.6 216.65 284.55 211.3 286.05 209.05 286.65 207.05 287.4 194.65 290.3 188.25 295.2 184.5 298.05 183.45 300.85 182.95 302.2 183.45 303.55 188.2 317.25 200.7 325.25 207 329.3 212.9 330.75 213.4 330.9 213.9 330.9 215.3 330.9 216.45 330.05 217.5 329.15 217.85 327.7 218.3 326.05 217.35 324.6 216.5 323.15 214.85 322.75 210.45 321.6 205.65 318.65 196.1 312.75 192 302.85 192.55 302.3 193.3 301.7 195.35 304.15 199.4 306.4 209.85 312.3 228.5 312.3 233.9 312.3 240.6 311.75 241.35 311.65 241.9 311.4 243.7 310.6 245.5 309.45 248.45 307.65 251.05 305.6 252 304.8 252.95 304 263.45 294.5 265.7 281.1 266.2 280.75 267.9 280.05 269.65 279.35 270.45 278.75 273.75 277.15 276.3 276 277.45 275.25 277.85 273.4 278.15 271.65 277.5 270.2
M 210.2 295.05
Q 212.2 294.35 214.55 293.75 221.45 291.9 227.7 290.95
L 227.95 290.95
Q 244.4 287.55 257 283.25 254.55 291.2 247.6 297.55 243.55 301.25 239.1 303.5 233.55 304 228.5 304 210.5 304 202 298.3 204.95 296.75 209.35 295.3 209.8 295.15 210.2 295.05
M 161.35 256.5
Q 159.85 258.05 159.85 260.2
L 160.1 283.95
Q 160.1 286.05 161.55 287.65 163.1 289.25 165.2 289.25
L 165.25 289.25
Q 167.35 289.25 168.9 287.6 170.4 286 170.4 283.85
L 170.2 260.1
Q 170.2 258 168.7 256.45 167.15 254.9 165.05 254.9 162.85 254.9 161.35 256.5
M 119.15 286.05
Q 113.85 284.6 108.65 283.6 106.3 283.2 104.05 282.85 79.15 277.7 64.25 270.75 61.1 268.7 56.75 267.8 55.25 267.45 53.7 268.15 52.1 268.85 51.55 270.2 51 271.6 51.4 273.05 51.8 274.4 53.05 275.25 53.3 275.5 55.3 276.75 57.8 278.25 59.9 279.3 61 280 64.15 282.4 65.25 288.7 68.7 294.05 71.75 298.85 77.5 304 78.4 304.8 79.35 305.6 83.9 309.3 88.45 311.4 89.1 311.65 89.75 311.75 96.45 312.3 101.9 312.3 120.6 312.3 131.05 306.4 135 304.2 137.1 301.7 137.8 302.3 138.35 302.85 134.25 312.7 124.8 318.6 120 321.6 115.55 322.75 113.9 323.15 113 324.6 112.15 326.05 112.5 327.7 112.85 329.15 114 330.05 115.05 330.9 116.55 330.9 117.05 330.9 117.5 330.75 123.4 329.3 129.7 325.25 142.2 317.25 146.95 303.55 147.4 302.2 146.95 300.85 145.95 298.1 142.2 295.2 135.7 290.3 123.4 287.35 121.4 286.65 119.15 286.05
M 121.05 295.3
Q 121.1 295.3 121.15 295.35 125.55 296.75 128.4 298.3 125.05 300.6 119.6 302.05 112.25 304 101.9 304 96.9 304 91.25 303.5 86.85 301.3 82.8 297.55 75.9 291.2 73.35 283.25 85.95 287.55 102.45 290.95
L 102.7 291
Q 109.05 292 115.8 293.75 118.15 294.35 120.25 295.05 120.6 295.2 121.05 295.3
M 111.75 261
Q 109 259.75 104.05 258.3 94.2 255.3 82 253.55 79.95 253.25 78.2 254.5 76.5 255.8 76.2 257.9 75.9 260 77.2 261.75 78.4 263.45 80.55 263.75 91.3 265.35 100.1 267.9 104.75 269.25 107.45 270.4 121.4 277.25 133.8 284.4 134.45 284.8 135.25 284.95 138.75 285.8 142 285.8 149.35 285.8 153.4 281.2 157.4 276.55 156.85 268.45 156.5 264.3 155.15 260.1 154.4 258.1 152.45 257.15 150.55 256.3 148.55 256.95 146.5 257.7 145.6 259.65 144.7 261.55 145.4 263.55 146.4 266.35 146.55 269.5 146.8 273.1 145.65 274.35 144.85 275.25 142.9 275.4 140.95 275.55 138.15 275.05 126.95 268.5 111.95 261.1
L 111.75 261
M 44.1 169
Q 42.85 170.7 43.2 172.8 49.75 209.05 40.45 232.5 35.85 244.25 29.5 249 27.75 250.25 27.35 252.4 27 254.45 28.2 256.25 29.75 258.5 32.45 258.5 33.95 258.5 35.4 257.55 43.45 251.85 49.3 238.45 60.8 212 53.35 170.95 53 168.9 51.25 167.65 49.5 166.45 47.4 166.8 45.3 167.25 44.1 169
M 276.75 170.8
Q 275.75 175 275.05 180.8 273.6 192.05 274 202.95 275.35 237.2 294.3 256.65 295.9 258.25 298 258.25 300.05 258.25 301.6 256.75 303.1 255.25 303.15 253.15 303.15 250.9 301.65 249.4 285.25 232.55 284.4 201.3 284.1 191.45 285.45 181.35 286.85 173.15 286.85 172.95 287.3 170.9 286.2 169.1 285 167.3 282.95 166.8 280.75 166.4 279 167.55 277.2 168.75 276.75 170.8 Z"/>



<path fill="#FFFFFF" fill-opacity="0.2" stroke="none" d="
M 277.85 273.4
Q 277.45 275.25 276.3 276 273.75 277.15 270.45 278.75 269.65 279.35 267.9 280.05 266.2 280.75 265.7 281.1 263.45 294.5 252.95 304 252 304.8 251.05 305.6
L 251.5 305.55
Q 256.7 305.15 259.6 303.05 261 302 261.45 301.05 264.9 294.45 279.75 282 287.2 275.8 293.95 270.9 296.45 268.9 295.45 266.6
L 293.95 264.7
Q 261.5 262.55 238.3 272.95 231.05 276.25 225.6 280.35
L 221.85 283.6
Q 224.1 283.15 226.4 282.85 251.25 277.7 266.15 270.75 269.55 268.5 272.85 267.8 274.25 267.45 275.6 268.15 276.95 268.85 277.5 270.2 278.15 271.65 277.85 273.4
M 104.05 282.85
Q 106.3 283.2 108.65 283.6 103.45 278.1 92.1 272.95 68.9 262.55 36.45 264.7
L 34.95 266.6
Q 33.9 268.9 36.45 270.9
L 50.65 282
Q 65.45 294.45 68.95 301.05
L 70.8 303.05
Q 73.65 305.15 78.9 305.55 79.15 305.55 79.35 305.6 78.4 304.8 77.5 304 71.75 298.85 68.7 294.05 65.25 288.7 64.15 282.4 61 280 59.9 279.3 57.8 278.25 55.3 276.75 53.3 275.5 53.05 275.25 51.8 274.4 51.4 273.05 51 271.6 51.55 270.2 52.1 268.85 53.7 268.15 55.25 267.45 56.75 267.8 61.1 268.7 64.25 270.75 79.15 277.7 104.05 282.85 Z"/>



<path id="bg" fill="#FFF200" stroke="none" d="
M 214.55 293.75
Q 212.2 294.35 210.2 295.05 209.8 295.15 209.35 295.3 204.95 296.75 202 298.3 210.5 304 228.5 304 233.55 304 239.1 303.5 243.55 301.25 247.6 297.55 254.55 291.2 257 283.25 244.4 287.55 227.95 290.95
L 227.7 290.95
Q 221.45 291.9 214.55 293.75
M 102.7 291
L 102.45 290.95
Q 85.95 287.55 73.35 283.25 75.9 291.2 82.8 297.55 86.85 301.3 91.25 303.5 96.9 304 101.9 304 112.25 304 119.6 302.05 125.05 300.6 128.4 298.3 125.55 296.75 121.15 295.35 121.1 295.3 121.05 295.3 120.6 295.2 120.25 295.05 118.15 294.35 115.8 293.75 109.05 292 102.7 291 Z"/>
</g>



</svg>
