
<svg xmlns="http://www.w3.org/2000/svg" version="1.1" xmlns:xlink="http://www.w3.org/1999/xlink" preserveAspectRatio="none" x="0px" y="0px" width="200px" height="80px" viewBox="0 0 200 80">
<defs>
<g id="Layer0_0_FILL">
<path id="bg" fill="#000000" stroke="none" d="
M 96.6 47.4
Q 95.75 42.45 93.1 38.05 90.95 34.4 88.05 32.05 83.95 28.6 78.9 28.6 75.85 28.6 72.4 29.95 70.4 30.75 67.55 32.1 61.55 34.9 58.15 35.95 52.2 37.9 46.75 37.9 34.75 37.9 22.8 28.85
L 22.45 28.5
Q 18.5 24.7 17.4 19.4 15.85 12.4 21 6.7 23.3 4.25 26.3 2.4 22.9 0 19.65 0 13.6 0 7.2 8.1
L 7 8.35
Q 4.45 11 2.3 17.45 -0.65 26 0.2 34.7 2 54 21.8 68.6 26.55 71.9 33.2 74.75 45.3 80 56.4 80 80.9 80 96.15 54 97.35 51.95 96.6 47.4
M 197.7 17.4
Q 195.5 10.95 192.95 8.35
L 192.75 8.1
Q 186.35 0 180.35 0 177.1 0 173.65 2.4 176.7 4.2 179 6.7 184.1 12.4 182.65 19.4 181.5 24.7 177.55 28.5 177.35 28.9 177.2 29 164.95 38.3 153.25 38.3 147.75 38.3 141.85 36.3 138.75 35.2 132.45 32.3 127.75 30.15 127.55 30.05 124 28.6 121.1 28.6 116.1 28.6 111.95 32.05 109 34.4 106.85 38.05 104.75 41.5 103.9 45.1 103.6 46.05 103.6 48.6 103.6 51.1 104.05 54.15 119.15 79.65 143.6 79.65 154.65 79.65 166.75 74.5 173.8 71.5 178.25 68.35 198 53.9 199.85 34.65 200.65 25.85 197.7 17.4 Z"/>
</g>
</defs>

<g transform="matrix( 1, 0, 0, 1, 0,0) ">
<use xlink:href="#Layer0_0_FILL"/>
</g>
</svg>
