
<svg xmlns="http://www.w3.org/2000/svg" version="1.1" xmlns:xlink="http://www.w3.org/1999/xlink" preserveAspectRatio="none" x="0px" y="0px" width="400px" height="200px" viewBox="0 0 400 200">
<g>
<path id="bg" fill="#000000" stroke="none" d="
M 87.4 22.95
L 87.45 22.95
Q 82 13.1 76.15 8.15 70.2 2.95 65 1 64.95 1 64.9 1 57.35 -1.95 55.4 3.95 53.6 6.3 55.2 12.6 57.1 19.85 60.05 27 62.3 33 61.35 43.7
L 61.35 43.75
Q 60.4 54.15 51.45 62.5
L 51.45 62.55
Q 41.1 72.05 23.65 84.4 3.9 98.35 0.9 120.45 -2.05 142 4.7 156.65 11.35 171.4 25.9 181.25 39.8 190.7 65.6 196.35 65.75 196.35 65.9 196.4
L 89.75 199.95
Q 91.4 200.2 92.9 199.45 97.8 197.3 104.65 187.45 111.25 177.95 112.25 165.8 113.25 154.65 112.35 146.35
L 112.35 139.7
Q 112.35 137.45 110.8 135.9 109.3 134.35 107.05 134.35
L 100.65 134.35
Q 100.6 134.35 100.5 134.35 93.75 134.5 81.35 133.6 69.95 132.7 60.75 127.3
L 60.8 127.35
Q 53.75 123.1 54.4 115.65 55.3 107 61.8 101.75
L 61.8 101.7
Q 70.3 94.75 78.45 85.25
L 78.5 85.25
Q 87.15 75.2 90.2 66.35
L 90.2 66.4
Q 93.45 57.5 93.2 45.35
L 93.2 45.3
Q 93 32.85 87.4 22.95
M 82.55 45.5
L 82.55 45.55
Q 82.75 55.45 80.2 62.75 77.6 69.95 70.5 78.2 62.95 86.9 55.05 93.4 45.25 101.45 43.8 114.5 42.15 128.7 55.4 136.65 66.55 143.2 80.55 144.3
L 80.6 144.3
Q 93.55 145.2 100.65 145.05
L 101.75 145.05 101.75 146.7
Q 101.75 146.95 101.75 147.25 102.55 154.8 101.7 164.9 100.9 174.15 95.95 181.3 92.15 186.85 89.35 189
L 67.5 185.75
Q 44.35 180.7 31.8 172.3 19.85 164.2 14.35 152.15
L 14.35 152.2
Q 9 139.95 11.45 121.95
L 11.45 121.9
Q 13.95 104.35 29.75 93.2 47.9 80.35 58.65 70.4
L 58.7 70.4
Q 70.8 59 71.95 44.7 73.2 30.65 69.85 22.95 68.1 18.65 66.75 14.35 68 15.2 69.25 16.35 73.75 20.35 78.15 28.2 82.45 35.85 82.55 45.5
M 344.75 12.6
Q 346.35 6.3 344.55 3.95 342.6 -1.95 335.05 1
L 335 1
Q 329.75 2.95 323.8 8.15 317.95 13.1 312.5 22.95
L 312.55 22.95
Q 306.95 32.85 306.75 45.3
L 306.75 45.35
Q 306.5 57.5 309.75 66.4
L 309.75 66.35
Q 312.8 75.2 321.45 85.25
L 321.5 85.25
Q 329.65 94.75 338.15 101.7
L 338.15 101.75
Q 344.65 107 345.55 115.65 346.2 123.1 339.15 127.35
L 339.2 127.3
Q 330 132.7 318.6 133.6 306.2 134.5 299.45 134.35 299.35 134.35 299.3 134.35
L 292.9 134.35
Q 290.7 134.35 289.15 135.9 287.6 137.45 287.6 139.7
L 287.6 146.35
Q 286.7 154.65 287.7 165.8 288.7 177.95 295.3 187.45 302.15 197.3 307.05 199.45 308.55 200.2 310.2 199.95
L 334.05 196.4
Q 334.2 196.35 334.35 196.35 360.15 190.7 374.1 181.25 388.65 171.4 395.3 156.65 402.05 142 399.1 120.45 396.1 98.35 376.35 84.4 358.85 72.05 348.5 62.55
L 348.5 62.5
Q 339.55 54.15 338.6 43.75
L 338.6 43.7
Q 337.65 33 339.9 27 342.85 19.85 344.75 12.6
M 330.75 16.35
Q 331.95 15.2 333.2 14.35 331.85 18.65 330.1 22.95 326.75 30.65 328 44.7 329.15 59 341.25 70.4
L 341.3 70.4
Q 352.05 80.35 370.25 93.2 386.05 104.35 388.55 121.9
L 388.55 121.95
Q 391 139.95 385.65 152.2
L 385.65 152.15
Q 380.15 164.2 368.2 172.3 355.6 180.7 332.45 185.75
L 310.6 189
Q 307.85 186.85 304 181.3 299.05 174.15 298.25 164.9 297.4 154.8 298.2 147.25 298.2 146.95 298.2 146.7
L 298.2 145.05 299.3 145.05
Q 306.45 145.2 319.35 144.3
L 319.4 144.3
Q 333.4 143.2 344.55 136.65 357.8 128.7 356.15 114.5 354.7 101.45 344.9 93.4 337 86.9 329.45 78.2 322.35 69.95 319.75 62.75 317.2 55.45 317.4 45.55
L 317.4 45.5
Q 317.5 35.85 321.8 28.2 326.2 20.35 330.75 16.35 Z"/>



<path id="bg" fill="#FFE400" stroke="none" d="
M 82.55 45.55
L 82.55 45.5
Q 82.45 35.85 78.15 28.2 73.75 20.35 69.25 16.35 68 15.2 66.75 14.35 68.1 18.65 69.85 22.95 73.2 30.65 71.95 44.7 70.8 59 58.7 70.4
L 58.65 70.4
Q 47.9 80.35 29.75 93.2 13.95 104.35 11.45 121.9
L 11.45 121.95
Q 9 139.95 14.35 152.2
L 14.35 152.15
Q 19.85 164.2 31.8 172.3 44.35 180.7 67.5 185.75
L 89.35 189
Q 92.15 186.85 95.95 181.3 100.9 174.15 101.7 164.9 102.55 154.8 101.75 147.25 101.75 146.95 101.75 146.7
L 101.75 145.05 100.65 145.05
Q 93.55 145.2 80.6 144.3
L 80.55 144.3
Q 66.55 143.2 55.4 136.65 42.15 128.7 43.8 114.5 45.25 101.45 55.05 93.4 62.95 86.9 70.5 78.2 77.6 69.95 80.2 62.75 82.75 55.45 82.55 45.55
M 333.2 14.35
Q 331.95 15.2 330.75 16.35 326.2 20.35 321.8 28.2 317.5 35.85 317.4 45.5
L 317.4 45.55
Q 317.2 55.45 319.75 62.75 322.35 69.95 329.45 78.2 337 86.9 344.9 93.4 354.7 101.45 356.15 114.5 357.8 128.7 344.55 136.65 333.4 143.2 319.4 144.3
L 319.35 144.3
Q 306.45 145.2 299.3 145.05
L 298.2 145.05 298.2 146.7
Q 298.2 146.95 298.2 147.25 297.4 154.8 298.25 164.9 299.05 174.15 304 181.3 307.85 186.85 310.6 189
L 332.45 185.75
Q 355.6 180.7 368.2 172.3 380.15 164.2 385.65 152.15
L 385.65 152.2
Q 391 139.95 388.55 121.95
L 388.55 121.9
Q 386.05 104.35 370.25 93.2 352.05 80.35 341.3 70.4
L 341.25 70.4
Q 329.15 59 328 44.7 326.75 30.65 330.1 22.95 331.85 18.65 333.2 14.35 Z"/>

</g>

</svg>
