
<svg xmlns="http://www.w3.org/2000/svg" version="1.1" xmlns:xlink="http://www.w3.org/1999/xlink" preserveAspectRatio="none" x="0px" y="0px" width="150px" height="55px" viewBox="0 0 150 55">
<defs>
<g id="Layer0_0_FILL">
<path fill="#000000" stroke="none" d="
M 32.25 0.3
L 32.2 0.3
Q 30.2 0.6 22.05 2.75 16.05 4.35 12.15 6.8 6.15 10.55 2.1 17.6 -2.15 24.35 2.2 40
L 2.2 40.05
Q 4.25 47.35 7 53.35 7.45 54.3 8.45 54.8 9.35 55.2 10.35 54.85 11.3 54.45 11.8 53.55 12.3 52.6 12.1 51.6 10.05 42.55 10.35 38.5 10.55 36.75 11.5 34.85 12.2 39.1 14.15 43.95 14.6 45 15.65 45.45 16.6 45.85 17.7 45.45 18.7 45.05 19.15 44 20.45 40.95 22.3 37.15 26 29.6 28.95 25.85 31.2 23 34.55 19.95 38.45 16.75 39.9 15.3 46.95 8.95 43.45 3.7 41.25 -1.05 32.25 0.3
M 137.85 6.8
Q 133.95 4.35 127.95 2.75 119.8 0.6 117.8 0.3
L 117.75 0.3
Q 108.75 -1.05 106.55 3.7 103.05 8.95 110.1 15.3 111.6 16.75 115.45 19.95 118.8 23 121.05 25.85 124 29.6 127.7 37.15 129.55 40.95 130.85 44 131.3 45.05 132.3 45.45 133.4 45.85 134.35 45.45 135.4 45 135.85 43.95 137.8 39.1 138.5 34.85 139.45 36.75 139.65 38.5 139.95 42.55 137.9 51.6 137.7 52.6 138.2 53.55 138.7 54.45 139.65 54.85 140.65 55.2 141.55 54.8 142.55 54.3 143 53.35 145.75 47.35 147.8 40.05
L 147.8 40
Q 152.15 24.35 147.9 17.6 143.85 10.55 137.85 6.8 Z"/>
</g>
</defs>

<g transform="matrix( 1, 0, 0, 1, 0,0) ">
<use xlink:href="#Layer0_0_FILL"/>
</g>
</svg>
