
<svg xmlns="http://www.w3.org/2000/svg" version="1.1" xmlns:xlink="http://www.w3.org/1999/xlink" preserveAspectRatio="none" x="0px" y="0px" width="300px" height="270px" viewBox="0 0 300 270">

<g>
<path id="bg" fill="#FFFFFF" stroke="none" d="
M 54.75 30.95
Q 57.85 28.35 61 26.1 59.6 24 57.75 22.15 51.4 15.85 42.45 15.85 33.55 15.85 27.2 22.15 20.8 28.4 20.8 37.35 20.8 46.2 27.2 52.5
L 27.25 52.55
Q 28.85 54.2 30.75 55.5 35.95 49 42.25 42.6 45.55 39.25 48.85 36.2 48.3 35.6 47.7 35 46.05 33.3 43.85 32.05 42.35 31.5 38.95 32.45
L 37.4 33.55
Q 36.05 34.5 34.5 34.25 32.85 34 31.9 32.7 30.95 31.35 31.2 29.8 31.45 28.2 32.75 27.25
L 34.9 25.75
Q 35.45 25.3 36.15 25.1 44.3 22.75 47.9 25.35 51.05 27.15 53.35 29.5 54.1 30.3 54.75 30.95
M 276.4 85.8
Q 270.7 71.55 255.1 53.9 239.3 36.1 214.95 24.6
L 214.95 24.55
Q 190.55 12.9 167.55 11.55 144.05 10.2 133 11.25 121.85 12.35 97.1 19.65
L 97.05 19.65
Q 72.65 26.8 50 50.1 27.2 73.45 19.4 96.85 11.55 120.3 12.7 146.65 13.85 173.95 14.4 190.4 14.95 207.05 14.65 214.35
L 14.65 214.4
Q 14.3 221.8 11.45 234.75 9.25 244.85 15.75 254.4 20.15 260.55 27.15 257.9 28.9 225.15 28.9 222.15 28.6 219.2 31.85 208.35
L 31.85 208.4
Q 35.1 197.05 42.25 191.5 48.9 185.95 58.75 183.5 69.2 180.95 78.65 185.2
L 78.7 185.2
Q 86.2 188.45 116.1 193.8 146.1 199 156.6 198.55 167.1 198.05 181.55 195.7 195.8 193.25 208.05 188.55 222 183.1 233.75 183.9 245.3 184.6 252.8 187.4 261.15 190 267.25 204.35
L 267.25 204.4
Q 272.5 216.65 272.6 237.1 272.7 254.5 274.6 259.25
L 274.6 259.3
Q 275.45 259.55 280.35 257.7 287.45 254.7 288.35 244.45 289.4 231.35 287.75 224.25 285.75 216.1 285.7 202.1 285.65 188.35 286.85 177.9 288.05 167.7 289 152.9 289.85 138.45 286 119.6 282.1 100.45 276.4 85.8
M 273.9 22.25
L 273.85 22.25
Q 267.5 15.95 258.6 15.95 249.65 15.95 243.3 22.25 241.35 24.2 239.95 26.45 243.25 28.6 246.35 31.05 246.95 30.4 247.7 29.6 250 27.25 253.15 25.45 256.7 22.85 264.9 25.2 265.6 25.4 266.1 25.85
L 268.3 27.35
Q 269.6 28.3 269.85 29.9 270.1 31.45 269.15 32.8 268.2 34.1 266.6 34.35 265 34.6 263.65 33.65
L 262.15 32.55
Q 258.7 31.6 257.15 32.15 255 33.4 253.4 35.1 252.85 35.55 252.45 36.05 258.2 41.15 263.2 46.8 267.1 51.2 270.45 55.5 272.2 54.25 273.85 52.65
L 273.9 52.6
Q 280.25 46.3 280.25 37.45 280.25 28.5 273.9 22.25 Z"/>

<path fill="#FED6CC" stroke="none" d="
M 194.95 54.65
Q 184.35 52.35 173.75 56.1 161.15 60.5 151.65 59.9 142.5 59.35 136.55 58.1
L 136.55 58.05
Q 130.85 56.85 122.75 55.5 115.1 54.2 102.35 56.3
L 99.35 57.4
Q 92.6 59.7 87.85 63.95
L 87.8 64
Q 83 68.3 79.4 78.05 75.75 87.65 77.6 95.9 79.5 103.75 84.35 108.8 92.85 116 97.05 118.15 101.5 120.45 107.05 123.55 113.3 127 116.15 130.45
L 116.2 130.45
Q 119.7 134.3 119.35 141.5
L 119.35 141.55
Q 119.05 146.85 118.55 158.5 118.05 167 125.9 169.45 136.1 172.55 150.45 173.25 164.15 173.85 173 169.85 180.4 166.4 181.75 162.55
L 181.7 162.6
Q 182.85 157.8 181.8 152.1 180.55 144.75 181.55 138.25
L 181.55 138.3
Q 182.55 130.75 190.45 125.3 196.95 120.6 203.25 117.75
L 203.1 117.8
Q 208.2 115.3 214.1 111.05 219.25 107.15 221.65 99.65 224.1 91.7 221.9 80.8 219.7 70.2 212.7 63.6 205.5 56.9 194.95 54.65
M 167.45 88.3
Q 167.45 80.55 172.95 75.2 178.4 69.75 186.15 69.75 193.95 69.75 199.4 75.2
L 199.45 75.2
Q 204.9 80.55 204.9 88.3 204.9 96.05 199.45 101.5 193.95 106.9 186.15 106.9 178.4 106.9 172.95 101.5 167.45 96.05 167.45 88.3
M 101.65 75.2
Q 107.05 69.75 114.85 69.75 122.6 69.75 128 75.2
L 128.05 75.2
Q 133.55 80.55 133.55 88.3 133.55 96.05 128.05 101.5 122.6 106.9 114.85 106.9 107.05 106.9 101.65 101.5 96.15 96.05 96.15 88.3 96.15 80.55 101.65 75.2 Z"/>

<path fill="#000000" stroke="none" d="
M 291.1 37.85
Q 291.1 37.6 291.1 37.45 290.95 23.9 281.5 14.65 272 5.2 258.6 5.2 245.1 5.2 235.6 14.65 232.75 17.45 230.8 20.7 225.4 17.6 219.65 14.85 193.25 2.25 168.2 0.8 143.55 -0.7 131.95 0.55
L 131.9 0.55
Q 120.15 1.55 94 9.35 81.75 12.85 69.95 20.1 68 17.1 65.4 14.55 55.9 5.1 42.45 5.1 29 5.1 19.5 14.55
L 19.55 14.55
Q 10 23.95 10 37.35 10 50.65 19.5 60.1 19.5 60.15 19.55 60.15 21.8 62.4 24.25 64.1 13.9 78.7 9.1 93.5 0.65 118.75 1.85 147.1 3.05 174.35 3.6 190.75 4.15 206.8 3.85 213.85
L 3.85 213.9
Q 3.5 220.7 0.9 232.4 -2.45 246.8 6.8 260.4 17.2 276.2 35.05 266.05 36.25 265.3 37 264.2 37.65 263 37.75 261.65 39.8 224.3 39.75 221.8 39.75 221.75 39.75 221.7 39.85 219.6 42.25 211.4 44.45 203.7 49.1 199.85
L 49.15 199.8
Q 54.05 195.75 61.35 194 68.1 192.3 74.2 195.05
L 74.2 195
Q 82.15 198.7 114.2 204.4 146 209.9 157.15 209.3 168.2 208.75 183.35 206.3
L 183.4 206.3
Q 198.75 203.7 211.95 198.55 223.5 194.1 233.05 194.65
L 233.1 194.65
Q 242.75 195.25 249 197.5 253.5 199.65 257.25 208.5 261.7 219.25 261.8 237.15 261.9 257.75 264.65 263.5 267.75 273.8 284.05 267.8
L 284.1 267.8
Q 297.65 263.2 299.1 245.3 300.3 230.1 298.3 221.8 296.6 214.5 296.55 202.05 296.5 189.05 297.7 179.1 298.85 168.7 299.8 153.55 300.8 137.95 296.65 117.5 292.6 97.3 286.5 81.9 283.2 73.55 276.85 64.2 279.3 62.45 281.5 60.2
L 281.55 60.15
Q 290.8 51.05 291.1 37.85
M 273.85 22.25
L 273.9 22.25
Q 280.25 28.5 280.25 37.45 280.25 46.3 273.9 52.6
L 273.85 52.65
Q 272.2 54.25 270.45 55.5 267.1 51.2 263.2 46.8 258.2 41.15 252.45 36.05 252.85 35.55 253.4 35.1 255 33.4 257.15 32.15 258.7 31.6 262.15 32.55
L 263.65 33.65
Q 265 34.6 266.6 34.35 268.2 34.1 269.15 32.8 270.1 31.45 269.85 29.9 269.6 28.3 268.3 27.35
L 266.1 25.85
Q 265.6 25.4 264.9 25.2 256.7 22.85 253.15 25.45 250 27.25 247.7 29.6 246.95 30.4 246.35 31.05 243.25 28.6 239.95 26.45 241.35 24.2 243.3 22.25 249.65 15.95 258.6 15.95 267.5 15.95 273.85 22.25
M 255.1 53.9
Q 270.7 71.55 276.4 85.8 282.1 100.45 286 119.6 289.85 138.45 289 152.9 288.05 167.7 286.85 177.9 285.65 188.35 285.7 202.1 285.75 216.1 287.75 224.25 289.4 231.35 288.35 244.45 287.45 254.7 280.35 257.7 275.45 259.55 274.6 259.3
L 274.6 259.25
Q 272.7 254.5 272.6 237.1 272.5 216.65 267.25 204.4
L 267.25 204.35
Q 261.15 190 252.8 187.4 245.3 184.6 233.75 183.9 222 183.1 208.05 188.55 195.8 193.25 181.55 195.7 167.1 198.05 156.6 198.55 146.1 199 116.1 193.8 86.2 188.45 78.7 185.2
L 78.65 185.2
Q 69.2 180.95 58.75 183.5 48.9 185.95 42.25 191.5 35.1 197.05 31.85 208.4
L 31.85 208.35
Q 28.6 219.2 28.9 222.15 28.9 225.15 27.15 257.9 20.15 260.55 15.75 254.4 9.25 244.85 11.45 234.75 14.3 221.8 14.65 214.4
L 14.65 214.35
Q 14.95 207.05 14.4 190.4 13.85 173.95 12.7 146.65 11.55 120.3 19.4 96.85 27.2 73.45 50 50.1 72.65 26.8 97.05 19.65
L 97.1 19.65
Q 121.85 12.35 133 11.25 144.05 10.2 167.55 11.55 190.55 12.9 214.95 24.55
L 214.95 24.6
Q 239.3 36.1 255.1 53.9
M 42.45 15.85
Q 51.4 15.85 57.75 22.15 59.6 24 61 26.1 57.85 28.35 54.75 30.95 54.1 30.3 53.35 29.5 51.05 27.15 47.9 25.35 44.3 22.75 36.15 25.1 35.45 25.3 34.9 25.75
L 32.75 27.25
Q 31.45 28.2 31.2 29.8 30.95 31.35 31.9 32.7 32.85 34 34.5 34.25 36.05 34.5 37.4 33.55
L 38.95 32.45
Q 42.35 31.5 43.85 32.05 46.05 33.3 47.7 35 48.3 35.6 48.85 36.2 45.55 39.25 42.25 42.6 35.95 49 30.75 55.5 28.85 54.2 27.25 52.55
L 27.2 52.5
Q 20.8 46.2 20.8 37.35 20.8 28.4 27.2 22.15 33.55 15.85 42.45 15.85
M 196.6 47
Q 183.85 44.25 171.15 48.75 160.3 52.5 152.15 52.05 143.65 51.5 138.15 50.45
L 138.2 50.45
Q 132.35 49.2 124.1 47.75 115.35 46.2 100.8 48.65 100.5 48.7 100.2 48.8
L 96.8 50
Q 88.45 52.85 82.55 58.1 82.55 58.15 82.5 58.15 76.5 63.35 72 75.3 67.5 87.35 69.95 97.65 72.4 108 79.05 114.6 79.15 114.65 79.25 114.75 88.7 122.7 93.4 125.1 97.75 127.4 103.3 130.4 107.95 132.95 110.15 135.5 111.65 137.5 111.5 141.1
L 111.5 141.15
Q 111.2 146.5 110.65 158.15 110.05 172.8 123.6 176.95 134.6 180.3 150.05 181.05
L 150.1 181.05
Q 166.05 181.8 176.35 176.95 188.1 171.45 189.45 164.45 190.95 158.2 189.65 150.75 188.55 144.75 189.4 139.5
L 189.4 139.45
Q 190.2 135 194.95 131.7
L 195 131.65
Q 200.9 127.45 206.55 124.85 206.6 124.8 206.65 124.8 212.2 122 218.7 117.3
L 218.75 117.3
Q 225.95 112.15 229.2 102 232.3 92.35 229.6 79.25 226.85 66 218.05 57.85 209.4 49.75 196.6 47
M 173.75 56.1
Q 184.35 52.35 194.95 54.65 205.5 56.9 212.7 63.6 219.7 70.2 221.9 80.8 224.1 91.7 221.65 99.65 219.25 107.15 214.1 111.05 208.2 115.3 203.1 117.8
L 203.25 117.75
Q 196.95 120.6 190.45 125.3 182.55 130.75 181.55 138.3
L 181.55 138.25
Q 180.55 144.75 181.8 152.1 182.85 157.8 181.7 162.6
L 181.75 162.55
Q 180.4 166.4 173 169.85 164.15 173.85 150.45 173.25 136.1 172.55 125.9 169.45 118.05 167 118.55 158.5 119.05 146.85 119.35 141.55
L 119.35 141.5
Q 119.7 134.3 116.2 130.45
L 116.15 130.45
Q 113.3 127 107.05 123.55 101.5 120.45 97.05 118.15 92.85 116 84.35 108.8 79.5 103.75 77.6 95.9 75.75 87.65 79.4 78.05 83 68.3 87.8 64
L 87.85 63.95
Q 92.6 59.7 99.35 57.4
L 102.35 56.3
Q 115.1 54.2 122.75 55.5 130.85 56.85 136.55 58.05
L 136.55 58.1
Q 142.5 59.35 151.65 59.9 161.15 60.5 173.75 56.1
M 96.1 69.65
L 96.05 69.7
Q 88.3 77.35 88.3 88.3 88.3 99.25 96.1 107.05 103.8 114.7 114.85 114.7 125.85 114.7 133.6 107.05 141.4 99.25 141.4 88.3 141.4 77.35 133.6 69.7
L 133.6 69.65
Q 125.85 61.95 114.85 61.95 103.8 61.95 96.1 69.65
M 96.15 88.3
Q 96.15 80.55 101.65 75.2 107.05 69.75 114.85 69.75 122.6 69.75 128 75.2
L 128.05 75.2
Q 133.55 80.55 133.55 88.3 133.55 96.05 128.05 101.5 122.6 106.9 114.85 106.9 107.05 106.9 101.65 101.5 96.15 96.05 96.15 88.3
M 118.5 85.05
Q 117.05 83.6 115.05 83.6 112.95 83.6 111.55 85.05 110.1 86.45 110.1 88.5 110.1 90.5 111.55 91.9 112.95 93.4 115.05 93.4 117.05 93.4 118.5 91.9 119.95 90.5 119.95 88.5 119.95 86.45 118.5 85.05
M 167.5 122.35
Q 166.1 121.45 164.55 121.9 163 122.25 159.7 123.05
L 159.65 123.1
Q 153.6 124.55 149.15 124.45 144.8 124.3 140.65 123
L 137.25 121.6
Q 135.75 121 134.25 121.55 132.75 122.15 132.15 123.65 131.5 125.15 132.1 126.65 132.75 128.2 134.2 128.8
L 137.9 130.35
Q 138.05 130.4 138.2 130.45 142.25 131.75 146.4 132.15
L 146.4 157.5
Q 146.4 159.1 147.6 160.25 148.7 161.4 150.35 161.4 151.95 161.4 153.15 160.25 154.3 159.1 154.3 157.5
L 154.3 132.05
Q 157.6 131.6 161.55 130.65
L 161.5 130.65
Q 164.85 129.9 166.5 129.5 168.05 129.05 168.9 127.7 169.7 126.3 169.35 124.75 168.9 123.2 167.5 122.35
M 167.4 69.65
L 167.35 69.7
Q 159.6 77.35 159.6 88.3 159.6 99.25 167.4 107.05 175.15 114.7 186.15 114.7 197.2 114.7 205 107.05 212.75 99.25 212.75 88.3 212.75 77.35 205 69.7
L 205 69.65
Q 197.2 61.95 186.15 61.95 175.15 61.95 167.4 69.65
M 167.45 88.3
Q 167.45 80.55 172.95 75.2 178.4 69.75 186.15 69.75 193.95 69.75 199.4 75.2
L 199.45 75.2
Q 204.9 80.55 204.9 88.3 204.9 96.05 199.45 101.5 193.95 106.9 186.15 106.9 178.4 106.9 172.95 101.5 167.45 96.05 167.45 88.3
M 186.35 83.6
Q 184.3 83.6 182.85 85.05 181.45 86.45 181.45 88.5 181.45 90.5 182.85 91.9 184.3 93.4 186.35 93.4 188.4 93.4 189.85 91.9 191.3 90.5 191.3 88.5 191.3 86.45 189.85 85.05 188.4 83.6 186.35 83.6 Z"/>
</g>

</svg>
