<?xml version="1.0" encoding="utf-8"?>
<!-- Generator: Adobe Illustrator 16.0.0, SVG Export Plug-In . SVG Version: 6.00 Build 0)  -->
<!DOCTYPE svg PUBLIC "-//W3C//DTD SVG 1.1 Tiny//EN" "http://www.w3.org/Graphics/SVG/1.1/DTD/svg11-tiny.dtd">
<svg version="1.1" baseProfile="tiny" id="Selected_Items"
	 xmlns="http://www.w3.org/2000/svg" xmlns:xlink="http://www.w3.org/1999/xlink" x="0px" y="0px" width="400px" height="500px"
	 viewBox="0 0 400 500" xml:space="preserve">
	 <g>

<path id="bg" fill-rule="evenodd" fill="#F4BD38" d="M400,35.45c-4.033,0-7.483,1.417-10.35,4.25c-2.834,2.833-4.25,6.267-4.25,10.3
	s1.416,7.467,4.25,10.3c2.866,2.867,6.316,4.3,10.35,4.3v20.85c-4.033,0-7.483,1.417-10.35,4.25c-2.834,2.833-4.25,6.267-4.25,10.3
	s1.416,7.467,4.25,10.3c2.866,2.867,6.316,4.3,10.35,4.3v20.85c-4.033,0-7.483,1.417-10.35,4.25c-2.834,2.833-4.25,6.267-4.25,10.3
	s1.416,7.467,4.25,10.3c2.866,2.867,6.316,4.3,10.35,4.3v20.85c-4.033,0-7.483,1.417-10.35,4.25c-2.834,2.833-4.25,6.267-4.25,10.3
	s1.416,7.467,4.25,10.3c2.866,2.867,6.316,4.3,10.35,4.3v20.85c-4.033,0-7.483,1.417-10.35,4.25c-2.834,2.833-4.25,6.267-4.25,10.3
	s1.416,7.467,4.25,10.3c2.866,2.867,6.316,4.3,10.35,4.3v20.851c-4.033,0-7.483,1.416-10.35,4.25c-2.834,2.833-4.25,6.267-4.25,10.3
	s1.416,7.467,4.25,10.3c2.866,2.867,6.316,4.3,10.35,4.3v20.851c-4.033,0-7.483,1.416-10.35,4.25c-2.834,2.833-4.25,6.267-4.25,10.3
	s1.416,7.467,4.25,10.3c2.866,2.867,6.316,4.3,10.35,4.3v20.851c-4.033,0-7.483,1.416-10.35,4.25c-2.834,2.833-4.25,6.267-4.25,10.3
	s1.416,7.467,4.25,10.3c2.866,2.867,6.316,4.3,10.35,4.3V435.4c-4.033,0-7.483,1.433-10.35,4.3c-2.834,2.833-4.25,6.267-4.25,10.3
	s1.416,7.467,4.25,10.3c2.866,2.867,6.316,4.3,10.35,4.3V485.4c-4.033,0-7.483,1.433-10.35,4.3c-2.834,2.833-4.25,6.267-4.25,10.3
	H364.6c0-4.033-1.433-7.467-4.3-10.3c-2.833-2.867-6.267-4.3-10.3-4.3s-7.483,1.433-10.35,4.3c-2.834,2.833-4.25,6.267-4.25,10.3
	H314.6c0-4.033-1.433-7.467-4.3-10.3c-2.866-2.867-6.3-4.3-10.3-4.3c-4.033,0-7.483,1.433-10.35,4.3
	c-2.834,2.833-4.25,6.267-4.25,10.3H264.6c0-4.033-1.433-7.467-4.3-10.3c-2.866-2.867-6.3-4.3-10.3-4.3
	c-4.033,0-7.483,1.433-10.35,4.3c-2.834,2.833-4.25,6.267-4.25,10.3H214.6c0-4.033-1.433-7.467-4.3-10.3
	c-2.833-2.867-6.267-4.3-10.3-4.3c-4,0-7.433,1.433-10.3,4.3c-2.867,2.833-4.3,6.267-4.3,10.3h-20.85c0-4.033-1.417-7.467-4.25-10.3
	c-2.833-2.867-6.267-4.3-10.3-4.3s-7.467,1.433-10.3,4.3c-2.867,2.833-4.3,6.267-4.3,10.3h-20.85c0-4.033-1.417-7.467-4.25-10.3
	c-2.833-2.867-6.267-4.3-10.3-4.3s-7.467,1.433-10.3,4.3c-2.867,2.833-4.3,6.267-4.3,10.3H64.55c0-4.033-1.417-7.467-4.25-10.3
	c-2.867-2.867-6.316-4.3-10.35-4.3c-4.034,0-7.45,1.433-10.25,4.3c-2.867,2.833-4.3,6.267-4.3,10.3H14.55
	c0-4.033-1.417-7.467-4.25-10.3c-2.833-2.834-6.267-4.25-10.3-4.25V464.6c4.033,0,7.467-1.433,10.3-4.3
	c2.833-2.8,4.25-6.217,4.25-10.25s-1.417-7.483-4.25-10.35c-2.833-2.834-6.267-4.25-10.3-4.25V414.6c4.033,0,7.467-1.433,10.3-4.3
	c2.833-2.833,4.25-6.267,4.25-10.3s-1.417-7.467-4.25-10.3c-2.833-2.834-6.267-4.25-10.3-4.25V364.6c4.033,0,7.467-1.433,10.3-4.3
	c2.833-2.833,4.25-6.267,4.25-10.3s-1.417-7.467-4.25-10.3c-2.833-2.834-6.267-4.25-10.3-4.25V314.6c4.033,0,7.467-1.433,10.3-4.3
	c2.833-2.8,4.25-6.217,4.25-10.25s-1.417-7.483-4.25-10.35c-2.833-2.834-6.267-4.25-10.3-4.25V264.6c4.033,0,7.467-1.433,10.3-4.3
	c2.833-2.833,4.25-6.267,4.25-10.3s-1.417-7.467-4.25-10.3c-2.833-2.833-6.267-4.25-10.3-4.25V214.6c4.033,0,7.467-1.434,10.3-4.3
	c2.833-2.833,4.25-6.267,4.25-10.3s-1.417-7.467-4.25-10.3c-2.833-2.833-6.267-4.25-10.3-4.25V164.6c4.033,0,7.467-1.434,10.3-4.3
	c2.833-2.8,4.25-6.216,4.25-10.25c0-4.033-1.417-7.483-4.25-10.35c-2.833-2.833-6.267-4.25-10.3-4.25V114.6
	c4.033,0,7.467-1.434,10.3-4.3c2.833-2.833,4.25-6.267,4.25-10.3s-1.417-7.467-4.25-10.3C7.467,86.867,4.033,85.45,0,85.45V64.6
	c4.033,0,7.467-1.434,10.3-4.3c2.833-2.833,4.25-6.267,4.25-10.3s-1.417-7.467-4.25-10.3C7.467,36.867,4.033,35.45,0,35.45V14.6
	c4.033,0,7.467-1.434,10.3-4.3c2.833-2.833,4.25-6.267,4.25-10.3H35.4c0,4.033,1.434,7.467,4.3,10.3c2.8,2.867,6.216,4.3,10.25,4.3
	c4.066,0,7.517-1.434,10.35-4.3c2.833-2.8,4.25-6.233,4.25-10.3H85.4c0,4.033,1.434,7.467,4.3,10.3c2.833,2.867,6.25,4.3,10.25,4.3
	c4.066,0,7.517-1.434,10.35-4.3c2.833-2.8,4.25-6.233,4.25-10.3h20.85c0,4.033,1.434,7.467,4.3,10.3c2.833,2.867,6.25,4.3,10.25,4.3
	c4.066,0,7.517-1.434,10.35-4.3c2.833-2.8,4.25-6.233,4.25-10.3h20.8c0,4.033,1.433,7.467,4.3,10.3c2.867,2.867,6.317,4.3,10.35,4.3
	s7.467-1.434,10.3-4.3c2.867-2.8,4.3-6.233,4.3-10.3H235.4c0,4.033,1.416,7.467,4.25,10.3c2.866,2.867,6.316,4.3,10.35,4.3
	s7.467-1.434,10.3-4.3c2.867-2.8,4.3-6.233,4.3-10.3H285.4c0,4.033,1.416,7.467,4.25,10.3c2.866,2.867,6.316,4.3,10.35,4.3
	c4,0,7.434-1.434,10.3-4.3c2.867-2.833,4.3-6.267,4.3-10.3H335.4c0,4.033,1.416,7.467,4.25,10.3c2.866,2.867,6.316,4.3,10.35,4.3
	s7.467-1.434,10.3-4.3c2.867-2.833,4.3-6.267,4.3-10.3H385.4c0,4.033,1.416,7.467,4.25,10.3c2.866,2.867,6.316,4.3,10.35,4.3V35.45z
	"/>
<path id="line" fill-rule="evenodd" fill="#BE8431" d="M33.6,466.4h332.8V302.8H33.6V466.4z M28.05,471.95V28.1h343.9v443.85H28.05z
	 M366.4,297.25V33.65H33.6v263.6H366.4z"/>
	 <text id="ntext" y="240" x="85" fill="#ffffff" font-family="'MyriadPro-Regular'" font-size="205">50</text>
	 <text id="itext" y="440" x="75" fill="#ffffff" font-family="'MyriadPro-Regular'" font-size="65">Your title</text>
 </g>
</svg>
