
<svg xmlns="http://www.w3.org/2000/svg" version="1.1" xmlns:xlink="http://www.w3.org/1999/xlink" preserveAspectRatio="none" x="0px" y="0px" width="250px" height="90px" viewBox="0 0 250 90">
<defs>
<g id="Layer0_0_FILL">
<path id="bg" fill="#000001" stroke="none" d="
M 250 28.7
Q 249.25 28.4 244.95 27.35 241.95 26.6 239 24.9 236.15 23.15 233.1 19.4 230.05 15.7 220.7 9 211.3 2.2 192.45 0.45 173.6 -1.35 163.45 3.85 153.3 9.05 149.75 12.15 146.2 15.25 142.6 16.85 139 18.45 131.75 18.6 123.7 18.75 118.2 18.6 110.95 18.45 107.35 16.85 103.8 15.25 100.25 12.15 96.65 9.05 86.5 3.85 76.35 -1.35 57.5 0.45 38.65 2.2 29.3 9 19.9 15.7 16.9 19.4 13.8 23.15 10.95 24.9 8.05 26.6 5 27.35 0.7 28.4 0 28.7
L 0.05 39.6 6.3 41.55
Q 12.35 43.1 15 53.5 17.55 63.95 28.75 75.95 39.85 87.85 62.2 89.8 84.45 91.65 99.95 75.55 105.9 69.3 109.2 61.5 111.5 56 113.5 46.6 113.7 45.65 115.2 42.05 116.1 39.65 115.8 37.15 115.35 33.6 113.8 33.1 112.5 32.6 112.45 30.75 112.35 27.05 118.7 26.3 120.25 26.15 130.5 26.3 137.65 27.05 137.55 30.75 137.5 32.6 136.15 33.1 134.6 33.6 134.15 37.15 133.85 39.65 134.75 42.05 136.25 45.65 136.45 46.6 138.45 56 140.75 61.5 144.1 69.3 150.05 75.55 165.5 91.65 187.8 89.8 210.15 87.85 221.25 75.95 232.4 63.95 235 53.5 237.65 43.1 243.7 41.55
L 249.95 39.6 250 28.7
M 219.6 17.75
Q 229.15 28.4 228.75 44.9 228.35 61.35 217.65 71.7 206.95 82.05 187.75 84 168.6 85.9 155.35 72.25 142.15 58.65 143.95 41.35 145.75 24.1 156.6 15.25 167.45 6.35 188.75 6.75 210.1 7.1 219.6 17.75
M 93.4 15.25
Q 104.25 24.1 106.05 41.35 107.85 58.65 94.6 72.25 81.4 85.9 62.25 84 43 82.05 32.3 71.7 21.6 61.35 21.25 44.9 20.85 28.4 30.35 17.75 39.9 7.1 61.2 6.75 82.5 6.35 93.4 15.25 Z"/>
</g>
</defs>

<g transform="matrix( 1, 0, 0, 1, 0,0) ">
<use xlink:href="#Layer0_0_FILL"/>
</g>
</svg>
