
<svg xmlns="http://www.w3.org/2000/svg" version="1.1" xmlns:xlink="http://www.w3.org/1999/xlink" preserveAspectRatio="none" x="0px" y="0px" width="300px" height="400px" viewBox="0 0 300 400">

<g >
<path fill="#FFFFFF" stroke="none" d="
M 253.95 228.05
Q 252.25 223 250.25 220.95
L 250.1 220.75
Q 245.1 214.35 240.4 214.35 237.9 214.35 235.2 216.25 237.55 217.65 239.35 219.65 243.35 224.15 242.2 229.65 241.3 233.85 238.2 236.85 238.05 237.15 237.95 237.2 228.45 244.55 219.25 244.55 215 244.55 210.35 242.95 207.95 242.1 203 239.8 199.35 238.15 199.2 238.05 196.45 236.95 194.2 236.95 190.3 236.95 187 239.6 184.75 241.45 183.05 244.35 181.45 247.05 180.75 249.9 180.9 250.65 181 251.45 181.4 254.6 180.9 257 192.65 277.1 211.7 277.1 220.35 277.1 229.8 273.1 235.3 270.7 238.75 268.25 254.2 256.85 255.6 241.65 256.2 234.75 253.95 228.05
M 152.4 239.65
Q 147.75 241.85 145.1 242.7 140.45 244.2 136.2 244.2 126.85 244.2 117.5 237.1
L 117.25 236.85
Q 114.15 233.85 113.3 229.65 112.1 224.15 116.1 219.65 117.9 217.7 120.25 216.25 117.55 214.35 115.05 214.35 110.35 214.35 105.35 220.75
L 105.2 220.95
Q 103.2 223.05 101.5 228.1 99.25 234.85 99.9 241.7 101.3 256.95 116.7 268.4 120.45 271.05 125.65 273.3 135.05 277.4 143.7 277.4 162.85 277.4 174.7 256.95 175.65 255.3 175.05 251.7 174.4 247.85 172.35 244.35 170.65 241.45 168.4 239.6 165.15 236.95 161.25 236.95 158.85 236.95 156.2 237.95 154.65 238.6 152.4 239.65
M 54.9 143.95
Q 54.9 134.3 48 127.45 47.2 126.7 46.4 126
L 46.35 125.95
Q 46.3 125.9 46.25 125.85 42.65 122.9 38.35 121.6 35.05 120.65 31.3 120.65
L 31.2 120.65
Q 21.55 120.65 14.65 127.45 7.75 134.3 7.75 143.95 7.75 153.6 14.65 160.45 21.55 167.3 31.3 167.3 41.1 167.3 48 160.45 54.9 153.6 54.9 143.95
M 260.2 168.8
Q 260 168.7 259.9 168.65 259.9 175.8 258.65 181.4 256.95 189.05 253.2 192.85 250.5 196.25 248.65 200.45 246.1 206.35 247.25 210.2
L 247.3 210.4
Q 251.15 212.5 254.75 217.1 257.5 220.15 259.55 226.25 262.25 234.1 261.5 242.25 260.65 251.05 255.8 258.9 250.9 266.75 242.3 273.1
L 242.2 273
Q 237.85 276.1 231.8 278.6 221.45 283 211.7 283 198.1 283 187.75 274.5 187.1 274.5 186.45 274.5 183.35 274.5 178.15 275.65 176.95 275.35 174.05 275.1 171.05 274.9 168.4 274.15 157.8 283.25 143.7 283.25 134 283.25 123.65 278.85 117.7 276.3 113.25 273.15
L 113.2 273.1
Q 104.55 266.75 99.65 258.9 94.8 251 93.95 242.25 93.2 234.1 95.9 226.25 98 220.1 100.75 217.1 104.55 212.2 108.65 210.1 109.1 208.2 108.85 205.6 108 198.2 100.65 190.45
L 100.05 189.8 99.8 189
Q 98.9 186.55 97.9 182.05 96.1 174.45 96.05 168.4 94.3 169.15 92.6 169.75 91.15 170.3 89.9 170.65 90.45 177.2 89.35 183.35 87.75 192.35 83 198.7 79.9 204.8 76.65 213.35 70.65 228.95 67.45 244.2 63.25 264.15 64.35 281.65 64.9 290.05 66.65 297.65 68.2 285.95 73 273.85 74.7 269.65 76.6 265.9
L 78.2 262.95
Q 69.75 284.55 72.25 305.15 73.4 315.15 76.2 321.05 78.55 314.6 82.6 312.75
L 87.25 309.35 88.1 316.55
Q 87.9 318.3 88.15 321.25 88.3 323.1 88.6 325.05 90.1 312.1 94.3 302.85 95.75 299.7 97.35 297.4
L 98.65 295.7
Q 91.1 319.45 94.95 336.5 96.85 345.05 100.3 348.8 98.95 337.15 103.35 326.5 104.75 323.15 106.5 320.35
L 108.05 318.2
Q 102.25 337.65 108.45 353.15 111.1 359.85 114.65 363.65 116.1 364.8 117.7 366.2 124 371.65 127.4 376.3 131.15 374.8 134.3 371.35
L 135.6 368.75 138.15 370.2
Q 139.6 370.5 142.05 371.45 146.3 373.05 150.1 375.25 161.85 382 165.35 392.15 171.15 392.2 179.55 388.1 185.65 385.2 191.3 380.6 199.7 373.7 207.1 363.15 208.7 360.9 210.25 358.45
L 209.4 361.35
Q 208.5 364.1 207.1 366.95 206.65 367.8 206.2 368.75 201.75 377 194.65 383.7 192.5 385.8 190.05 387.7 194.8 386 199.6 383.7 203.35 381.9 207.1 379.75 212.7 376.5 218.35 372.5
L 222.95 369.3 224.4 374.65
Q 224.4 374.7 225.15 376.2 226.2 378 227.95 379.35 231.55 374.3 236.1 370.05 239.45 366.9 243.05 364.45 245.75 360.4 248.5 355.45 254.75 344.05 254.75 337.9
L 253.2 339.95
Q 251.1 342.55 248.6 345.05 240.55 353.05 231.2 357.3 233.3 354.35 235.2 349.4 239.15 339.45 238.6 329.6
L 240.75 333.35
Q 242.75 338.1 242.1 343.3 244.9 341.95 248.5 337.45 255.7 328.5 259.4 312.85
L 260.4 315.7
Q 261.4 319.45 261.7 324 262.6 337.85 256.1 353.5 258.55 350.15 260.7 346.35 269 331.8 268.85 316.9
L 268.8 308.45 275.25 313.95
Q 275.35 314.05 277.3 316.2 278.9 318.25 280 320.7 281.9 315.5 282.75 306.45 284.7 286.75 278.85 263.95
L 280.2 265.85
Q 281.85 268.5 283.4 272.15 287.95 282.85 289.9 298.35 290 297.6 290.2 296.8 293.95 278.2 290.85 256.55 286.85 228.05 271.3 196.85 269.1 193.2 267.45 188.15 264.55 179.25 265.4 170.6 262.8 170 260.2 168.8
M 184.8 97.55
Q 181.1 97.55 177.9 97.75 175.4 98 175.35 98
L 168.35 98
Q 133.4 99.6 104.85 114.4 90.5 121.85 82.95 129.1
L 82.5 129.5
Q 73.5 136.1 74 147.85 74.3 154.2 76.8 159.6 79.1 163.7 83.95 163.7 87.95 163.7 93.5 161.1 97.4 159.3 100.25 157.2
L 100.4 157.1
Q 121.35 142.7 144.15 136.6 158.9 132.7 171.95 132.7 175.5 132.7 177.75 132.95 181.35 132.6 185.7 132.6 209.2 132.6 234.45 144.4 247.25 150.35 256.15 156.95
L 256.35 157.1
Q 263.85 163.55 270.9 163.55 274 163.55 276.5 162.3 284.6 151.85 280.1 139.8 278.75 136.2 276.35 132.7 275 130.85 273.7 129.35 251.4 111 223.7 103.05 204.35 97.55 184.8 97.55 Z"/>



<path id="bg" fill="#ED1C25" stroke="none" d="
M 260.1 69.1
Q 254.4 56.9 248 48.55 226.9 25.65 200.95 15.45 181.2 7.65 159.95 7.65 152.45 7.65 145.6 8.65 140.25 9.7 140.2 9.7
L 139.65 9.8
Q 115.1 12.75 94.6 27.15 74.1 41.5 57.85 67.05 49.9 79.7 43.55 94.35 39.3 104.1 36.4 113.35 42.15 114.2 46.95 116.9 46.95 116.85 46.95 116.8 50.65 111.65 56.2 107.6 67.4 99.5 76.9 105.2 73 104.95 68.85 105.95 63.55 107.2 60.95 110.15 61.35 110.1 61.8 110.05 68.3 110.05 72.8 114.1 75.25 116.2 76.9 119.25 77.05 115.1 78.35 108.9 81.1 96 87.6 84.9 87.25 78.6 90.15 70 96 52.8 112.5 41.2 108.5 46.6 104.45 53.15 96.35 66.1 96.15 71.5 99.85 66.45 106.7 60.3 120.45 48 136.4 42.5 133.5 44.1 129.15 47.25 120.35 53.6 112.7 61.65 89.2 86.35 85.1 117.35 87.7 115.4 90.65 113.55 104.75 104.15 122.15 98.35 139.9 92.4 158.95 90.85 165.6 90.3 171.55 90.3 173.3 90.3 174.8 90.35 176 90.2 178 90.05 181.2 89.9 184.8 89.9 190.7 89.9 196.6 90.4 198.05 90.5 199.5 90.65 206.2 91.25 212.75 92.5 226.85 95.1 240.65 100.75 257.95 107.85 272.45 118.5 271.4 93.25 260.1 69.1 Z"/>



<path fill="#000000" stroke="none" d="
M 254 43.7
L 253.85 43.5
Q 231.2 18.85 202.8 8 182.05 0 159.95 0 152.35 0 145.35 1 141.2 1.55 138.45 2.25 109.4 5.8 85.45 24.45 66.25 39.3 51.3 63.05 40.7 79.75 33.25 99.05 30.15 107 28.35 113.1 17.3 114 9.2 122.05 0 131.15 0 143.95 0 156.75 9.2 165.85 18.35 174.95 31.3 174.95 44.3 174.95 53.45 165.85 62.65 156.75 62.65 143.95 62.65 132.15 54.85 123.5 57.05 121.55 58.1 118.05 58.3 118 58.5 118 58.85 118.05 59.45 117.95 60.7 117.75 61.8 117.75 67.75 117.75 70.6 123.9 71.7 126.3 72.15 128.85 67 135.3 66.35 144.4 65.6 154.25 69.85 163
L 69.95 163.15
Q 72.2 167.2 75.75 169.25 78.65 170.95 82.2 171.3 82.4 174.35 82.2 177.4 81.65 187.8 76.6 194.3
L 76.2 194.9
Q 75.3 196.75 74.3 198.95 72.1 203.65 70 208.95 63.4 225.7 59.85 242.45 54.25 269.25 57.65 291.75 61 314.25 73.2 330.8
L 80.85 342.55 81.9 330.65
Q 84.15 339.9 89.25 348.2 95.75 358.85 106.45 367.15
L 106.6 367.25
Q 110.35 369.9 114.45 373.6 120.15 378.8 122.25 382.55
L 123.5 384.8 126.05 384.55
Q 127.8 384.35 130.25 383.4 134.6 381.7 138.3 378.25 144.65 380.45 149.45 383.95 157.05 389.5 158.55 396.7
L 159.1 399.3 161.7 399.7
Q 163.5 400 166.6 400 176.25 400 187.3 396.7 203.1 392.05 219.2 381.25 222.4 385.65 227.6 388
L 230.85 389.5 232.6 386.4
Q 234.5 383.05 238.1 379 245.3 370.9 254.1 367.05
L 254.65 366.8 255.15 366.35
Q 259.15 362.55 263.3 356.65 271.6 344.9 274.75 332.1
L 274.7 332.35 274.7 342.25 281.5 334.95
Q 284.55 331.6 287.9 325.6 294.6 313.75 297.65 298.9 301.8 279.1 298.65 256.25 294.55 226.15 278.2 193.35
L 278 193
Q 276.15 190.05 274.75 185.5 272.4 178.1 273.15 171.1 275.85 170.85 278.3 169.9 280.1 169.2 281.35 168.35 281.7 168.1 282.15 167.65 288.5 159.75 289.3 150.85 289.95 144.1 287.4 137.2 285.55 132.25 282.25 127.65 281 126.15 280.25 125.3 280.8 95.6 268 67.55 263.85 58.4 258.75 50.45 256.1 46.35 254 43.7
M 248 48.55
Q 254.4 56.9 260.1 69.1 271.4 93.25 272.45 118.5 257.95 107.85 240.65 100.75 226.85 95.1 212.75 92.5 206.2 91.25 199.5 90.65 198.05 90.5 196.6 90.4 190.7 89.9 184.8 89.9 181.2 89.9 178 90.05 176 90.2 174.8 90.35 173.3 90.3 171.55 90.3 165.6 90.3 158.95 90.85 139.9 92.4 122.15 98.35 104.75 104.15 90.65 113.55 87.7 115.4 85.1 117.35 89.2 86.35 112.7 61.65 120.35 53.6 129.15 47.25 133.5 44.1 136.4 42.5 120.45 48 106.7 60.3 99.85 66.45 96.15 71.5 96.35 66.1 104.45 53.15 108.5 46.6 112.5 41.2 96 52.8 90.15 70 87.25 78.6 87.6 84.9 81.1 96 78.35 108.9 77.05 115.1 76.9 119.25 75.25 116.2 72.8 114.1 68.3 110.05 61.8 110.05 61.35 110.1 60.95 110.15 63.55 107.2 68.85 105.95 73 104.95 76.9 105.2 67.4 99.5 56.2 107.6 50.65 111.65 46.95 116.8 46.95 116.85 46.95 116.9 42.15 114.2 36.4 113.35 39.3 104.1 43.55 94.35 49.9 79.7 57.85 67.05 74.1 41.5 94.6 27.15 115.1 12.75 139.65 9.8
L 140.2 9.7
Q 140.25 9.7 145.6 8.65 152.45 7.65 159.95 7.65 181.2 7.65 200.95 15.45 226.9 25.65 248 48.55
M 168.35 98
L 175.35 98
Q 175.4 98 177.9 97.75 181.1 97.55 184.8 97.55 204.35 97.55 223.7 103.05 251.4 111 273.7 129.35 275 130.85 276.35 132.7 278.75 136.2 280.1 139.8 284.6 151.85 276.5 162.3 274 163.55 270.9 163.55 263.85 163.55 256.35 157.1
L 256.15 156.95
Q 247.25 150.35 234.45 144.4 209.2 132.6 185.7 132.6 181.35 132.6 177.75 132.95 175.5 132.7 171.95 132.7 158.9 132.7 144.15 136.6 121.35 142.7 100.4 157.1
L 100.25 157.2
Q 97.4 159.3 93.5 161.1 87.95 163.7 83.95 163.7 79.1 163.7 76.8 159.6 74.3 154.2 74 147.85 73.5 136.1 82.5 129.5
L 82.95 129.1
Q 90.5 121.85 104.85 114.4 133.4 99.6 168.35 98
M 178.1 140.6
Q 181.5 140.25 185.7 140.25 206.95 140.25 230.55 151.1 242.75 156.75 251.4 163 251.7 163.25 251.95 163.5 252.45 169.7 251.7 175.9 250.65 184.55 247.6 187.5
L 247.3 187.85
Q 244.2 191.7 242 196.4 238.9 203 239.2 208.55 237.35 208.7 235.6 209.35 231.7 210.1 228.4 212.25 218.9 218.4 225.25 233.35
L 227.65 233.6
Q 230.2 233.35 230.95 231.05 229.95 228.6 229.85 226.35 229.65 221.9 233.85 222.55 234.45 223.1 234.9 223.55 237.15 226.15 236.2 229.25 235.6 231.2 234.15 232.7 226.35 238.7 219.25 238.7 215.85 238.7 212 237.3 210.25 236.65 205.55 234.5 202.75 233 201.45 232.5 197.6 231.05 194.2 231.05 189.3 231.05 185.1 233.75 180.85 236.4 177.9 241.3 177.8 241.5 177.7 241.75 177.6 241.55 177.5 241.4 174.6 236.45 170.4 233.75 166.1 231.05 161.25 231.05 157.7 231.05 154 232.55 152.45 233.15 149.85 234.35 145.8 236.25 143.45 237.05 139.6 238.35 136.2 238.35 128.9 238.35 121.3 232.55 119.85 231.05 119.3 229.25 118.25 226.1 120.55 223.5 121.05 222.95 121.8 222.35 125.1 222 125.7 226.1 126.05 228.2 125.65 230.4 125.55 233.1 127.65 233.35 128.75 233.45 129.85 233 133 230.55 132.95 224.5 132.9 222.6 132.6 220.55
L 132.25 218.9
Q 127.85 210.65 121.4 209.25 120.1 209 118.85 209.05 117.75 208.7 116.65 208.6 116.75 206.65 116.5 204.6 115.4 195.1 106.9 185.85 105.25 180.5 104.35 174.85 103.3 168.1 104.1 163.9 104.45 163.6 104.85 163.35 124.6 149.8 146 144.05 159.8 140.35 171.95 140.35 175.3 140.35 177.25 140.55 177.65 140.65 178.1 140.6
M 259.9 168.65
Q 260 168.7 260.2 168.8 262.8 170 265.4 170.6 264.55 179.25 267.45 188.15 269.1 193.2 271.3 196.85 286.85 228.05 290.85 256.55 293.95 278.2 290.2 296.8 290 297.6 289.9 298.35 287.95 282.85 283.4 272.15 281.85 268.5 280.2 265.85
L 278.85 263.95
Q 284.7 286.75 282.75 306.45 281.9 315.5 280 320.7 278.9 318.25 277.3 316.2 275.35 314.05 275.25 313.95
L 268.8 308.45 268.85 316.9
Q 269 331.8 260.7 346.35 258.55 350.15 256.1 353.5 262.6 337.85 261.7 324 261.4 319.45 260.4 315.7
L 259.4 312.85
Q 255.7 328.5 248.5 337.45 244.9 341.95 242.1 343.3 242.75 338.1 240.75 333.35
L 238.6 329.6
Q 239.15 339.45 235.2 349.4 233.3 354.35 231.2 357.3 240.55 353.05 248.6 345.05 251.1 342.55 253.2 339.95
L 254.75 337.9
Q 254.75 344.05 248.5 355.45 245.75 360.4 243.05 364.45 239.45 366.9 236.1 370.05 231.55 374.3 227.95 379.35 226.2 378 225.15 376.2 224.4 374.7 224.4 374.65
L 222.95 369.3 218.35 372.5
Q 212.7 376.5 207.1 379.75 203.35 381.9 199.6 383.7 194.8 386 190.05 387.7 192.5 385.8 194.65 383.7 201.75 377 206.2 368.75 206.65 367.8 207.1 366.95 208.5 364.1 209.4 361.35
L 210.25 358.45
Q 208.7 360.9 207.1 363.15 199.7 373.7 191.3 380.6 185.65 385.2 179.55 388.1 171.15 392.2 165.35 392.15 161.85 382 150.1 375.25 146.3 373.05 142.05 371.45 139.6 370.5 138.15 370.2
L 135.6 368.75 134.3 371.35
Q 131.15 374.8 127.4 376.3 124 371.65 117.7 366.2 116.1 364.8 114.65 363.65 111.1 359.85 108.45 353.15 102.25 337.65 108.05 318.2
L 106.5 320.35
Q 104.75 323.15 103.35 326.5 98.95 337.15 100.3 348.8 96.85 345.05 94.95 336.5 91.1 319.45 98.65 295.7
L 97.35 297.4
Q 95.75 299.7 94.3 302.85 90.1 312.1 88.6 325.05 88.3 323.1 88.15 321.25 87.9 318.3 88.1 316.55
L 87.25 309.35 82.6 312.75
Q 78.55 314.6 76.2 321.05 73.4 315.15 72.25 305.15 69.75 284.55 78.2 262.95
L 76.6 265.9
Q 74.7 269.65 73 273.85 68.2 285.95 66.65 297.65 64.9 290.05 64.35 281.65 63.25 264.15 67.45 244.2 70.65 228.95 76.65 213.35 79.9 204.8 83 198.7 87.75 192.35 89.35 183.35 90.45 177.2 89.9 170.65 91.15 170.3 92.6 169.75 94.3 169.15 96.05 168.4 96.1 174.45 97.9 182.05 98.9 186.55 99.8 189
L 100.05 189.8 100.65 190.45
Q 108 198.2 108.85 205.6 109.1 208.2 108.65 210.1 104.55 212.2 100.75 217.1 98 220.1 95.9 226.25 93.2 234.1 93.95 242.25 94.8 251 99.65 258.9 104.55 266.75 113.2 273.1
L 113.25 273.15
Q 117.7 276.3 123.65 278.85 134 283.25 143.7 283.25 157.8 283.25 168.4 274.15 171.05 274.9 174.05 275.1 176.95 275.35 178.15 275.65 183.35 274.5 186.45 274.5 187.1 274.5 187.75 274.5 198.1 283 211.7 283 221.45 283 231.8 278.6 237.85 276.1 242.2 273
L 242.3 273.1
Q 250.9 266.75 255.8 258.9 260.65 251.05 261.5 242.25 262.25 234.1 259.55 226.25 257.5 220.15 254.75 217.1 251.15 212.5 247.3 210.4
L 247.25 210.2
Q 246.1 206.35 248.65 200.45 250.5 196.25 253.2 192.85 256.95 189.05 258.65 181.4 259.9 175.8 259.9 168.65
M 46.35 125.95
L 46.4 126
Q 47.2 126.7 48 127.45 54.9 134.3 54.9 143.95 54.9 153.6 48 160.45 41.1 167.3 31.3 167.3 21.55 167.3 14.65 160.45 7.75 153.6 7.75 143.95 7.75 134.3 14.65 127.45 21.55 120.65 31.2 120.65
L 31.3 120.65
Q 35.05 120.65 38.35 121.6 42.65 122.9 46.25 125.85 46.3 125.9 46.35 125.95
M 145.1 242.7
Q 147.75 241.85 152.4 239.65 154.65 238.6 156.2 237.95 158.85 236.95 161.25 236.95 165.15 236.95 168.4 239.6 170.65 241.45 172.35 244.35 174.4 247.85 175.05 251.7 175.65 255.3 174.7 256.95 162.85 277.4 143.7 277.4 135.05 277.4 125.65 273.3 120.45 271.05 116.7 268.4 101.3 256.95 99.9 241.7 99.25 234.85 101.5 228.1 103.2 223.05 105.2 220.95
L 105.35 220.75
Q 110.35 214.35 115.05 214.35 117.55 214.35 120.25 216.25 117.9 217.7 116.1 219.65 112.1 224.15 113.3 229.65 114.15 233.85 117.25 236.85
L 117.5 237.1
Q 126.85 244.2 136.2 244.2 140.45 244.2 145.1 242.7
M 253.95 228.05
Q 256.2 234.75 255.6 241.65 254.2 256.85 238.75 268.25 235.3 270.7 229.8 273.1 220.35 277.1 211.7 277.1 192.65 277.1 180.9 257 181.4 254.6 181 251.45 180.9 250.65 180.75 249.9 181.45 247.05 183.05 244.35 184.75 241.45 187 239.6 190.3 236.95 194.2 236.95 196.45 236.95 199.2 238.05 199.35 238.15 203 239.8 207.95 242.1 210.35 242.95 215 244.55 219.25 244.55 228.45 244.55 237.95 237.2 238.05 237.15 238.2 236.85 241.3 233.85 242.2 229.65 243.35 224.15 239.35 219.65 237.55 217.65 235.2 216.25 237.9 214.35 240.4 214.35 245.1 214.35 250.1 220.75
L 250.25 220.95
Q 252.25 223 253.95 228.05
M 145.4 344.05
Q 144.25 340.75 143.5 337.3
L 143 334.5
Q 142.15 354.15 153.45 366.85 159.15 373.25 164.95 375.7 160.75 367.05 159.2 354.15 158.7 350.1 158.55 346.1
L 158.45 342.95
Q 155.4 347.55 155.05 354 154.9 357.25 155.35 359.55 149.05 354.6 145.4 344.05 Z"/>
</g>



</svg>
