<?xml version="1.0" encoding="utf-8"?>
<!-- Generator: Adobe Illustrator 16.0.0, SVG Export Plug-In . SVG Version: 6.00 Build 0)  -->
<!DOCTYPE svg PUBLIC "-//W3C//DTD SVG 1.1 Tiny//EN" "http://www.w3.org/Graphics/SVG/1.1/DTD/svg11-tiny.dtd">
<svg version="1.1" baseProfile="tiny" id="Selected_Items"
	 xmlns="http://www.w3.org/2000/svg" xmlns:xlink="http://www.w3.org/1999/xlink" x="0px" y="0px" width="500px" height="205px"
	 viewBox="0 0 500 205" xml:space="preserve">
	 <g>
<path id="line" fill-rule="evenodd" fill="#00A79D" d="M496.7,105.35c1.8,1.801,2.7,3.95,2.7,6.45c0,2.533-0.9,4.684-2.7,6.45l-28.55,28.4
	v40.699H451.5V204.4H51.45V187.35h-17V149.2L3.3,118.25c-1.8-1.767-2.7-3.917-2.7-6.45c0-2.5,0.9-4.649,2.7-6.45L34.45,74.3V36.2h17
	V19.25h87.35V0.6h222.4v18.65h90.3V36.2h16.65V77L496.7,105.35z"/>
<path id="bg" fill-rule="evenodd" fill="#0275AC" d="M360.8,39.95l-0.25-0.1V1.2h-221.1v38.65l-0.25,0.1
	c-24.767,19.8-42.817,44.25-54.15,73.35l-1.275,3.25C76.592,136.084,73,156.317,73,177.25c0,5.5,0.25,11.1,0.75,16.8h352.5
	c0.566-6.833,0.85-12.434,0.85-16.8c0-21.934-4.05-43.25-12.149-63.95C403.616,84.2,385.566,59.75,360.8,39.95z M496.3,117.8
	c1.634-1.633,2.45-3.633,2.45-6c0-2.434-0.816-4.45-2.45-6.05L467.55,77.2V36.8h-16.7V19.85H366.1v17.2l8.801,8.65
	c7.033,7.466,13.616,15.617,19.75,24.45c19.5,28.1,30.35,57.25,32.55,87.45c0.666,6.9,1,13.45,1,19.65c0,5.9-0.283,11.7-0.851,17.4
	v0.6H72.65v-0.6c-0.566-5.601-0.85-11.4-0.85-17.4c0-6.2,0.333-12.75,1-19.65l-0.075,1.926L73,156.4
	c0.056-0.693,0.122-1.385,0.2-2.075c-0.144,1.091-0.277,2.183-0.4,3.274c2.267-30.199,13.117-59.35,32.55-87.45
	c9.733-14.033,19.25-25.066,28.55-33.1v-17.2H52.05V36.8h-17v37.75L3.7,105.75c-1.633,1.6-2.45,3.616-2.45,6.05
	c0,2.367,0.817,4.367,2.45,6l31.35,31.15v37.8h17v17.05h398.8v-17.05h16.7V146.4L496.3,117.8z M497.2,104.85
	c1.866,1.9,2.8,4.217,2.8,6.95c0,2.7-0.934,4.983-2.8,6.851l-28.45,28.25v41.05H452.1V205H50.85v-17.05H33.8v-38.5l-31-30.8
	C0.933,116.783,0,114.5,0,111.8c0-2.733,0.933-5.05,2.8-6.95l31-30.8v-38.5h17.05v-16.9h87.35V0h223.6v18.65h90.3v16.9h16.65v41.2
	L497.2,104.85z"/>
<path id="bg" fill-rule="evenodd" fill="#FFFFFF" fill-opacity="0.098" d="M341.6,20.5v7.65H158.4V20.5H341.6z M341.6,37.15v8.65H158.4
	v-8.65H341.6z M358.75,63.5H141.4l10.05-8.65H348.7L358.75,63.5z M386.8,98.8H113.2l5.4-8.65h262.8L386.8,98.8z M367.55,72.5
	l7.351,8.65H125.2l7.25-8.65H367.55z M395.75,116.45H104.4l4.05-8.65H391.7L395.75,116.45z M402,134.15H98.15l2.7-8.65h298.3
	L402,134.15z M408.1,185.15H92.15l-0.15-6.7h316.1V185.15z M408,169.45H92.25l0.6-8.65h314.4L408,169.45z M406,151.8H94.1l1.7-8.649
	h308.5L406,151.8z"/>
<path id="bg" fill-rule="evenodd" fill="#FFFFFF" d="M342.95,90c0,0.267-0.25,0.4-0.75,0.4h-84.226c-0.101,1.989-0.858,3.723-2.274,5.2
	c-1.634,1.566-3.517,2.35-5.65,2.35c-2.2,0-4.066-0.784-5.6-2.35c-1.539-1.478-2.364-3.211-2.475-5.2H157.8
	c-0.5,0-0.75-0.167-0.75-0.5c0-0.233,0.25-0.35,0.75-0.35h84.15c0.093-1.958,0.926-3.708,2.5-5.25c1.533-1.566,3.4-2.35,5.6-2.35
	c2.134,0,4.017,0.783,5.65,2.35c1.447,1.542,2.214,3.292,2.3,5.25h84.2C342.7,89.55,342.95,89.7,342.95,90z M351.4,44.2l3.649,2.95
	c20.033,16,35.517,35.317,46.45,57.95c10.934,22.667,16.4,46.717,16.4,72.15l-0.25,7.65h-4.9l0.25-7.65c0-24.7-5.3-48.05-15.9-70.05
	c-10.699-22-25.733-40.767-45.1-56.3l-5.5-4.35v-31.3h-193v31.3L148,50.9c-19.367,15.533-34.35,34.3-44.95,56.3
	c-10.633,22-15.95,45.35-15.95,70.05l0.15,7.65h-4.9l-0.15-7.65c0-25.434,5.483-49.483,16.45-72.15
	c10.934-22.733,26.367-42.05,46.3-57.95l3.65-2.95V10.35h202.8V44.2z M343.65,47.85v-29.8h-187.3v29.8l-6.65,5.25
	c-19.034,15.267-33.767,33.7-44.2,55.3C95.033,130.1,89.8,153.05,89.8,177.25l0.25,7.3h319.9l0.25-7.3
	c0-24.3-5.233-47.25-15.7-68.85c-10.434-21.667-25.217-40.101-44.35-55.3L343.65,47.85z M344.3,17.4v30.25l6.351,4.95
	c19.1,15.267,33.916,33.783,44.449,55.55c10.467,21.767,15.7,44.8,15.7,69.1c0,3.167-0.083,5.717-0.25,7.65v0.25H89.45l-0.25-7.9
	c0-24.3,5.267-47.333,15.8-69.1c10.467-21.767,25.25-40.284,44.35-55.55l6.35-5.1V17.4H344.3z M450.6,84.4l-0.199-0.1V53.85h-16.7
	V36.9h-71.9v-0.6h72.55v16.95H451v30.8l27.95,27.75L451,139.6v30.7h-16.65v17.05H68.6V170.3h-17V142.15L21.05,111.8L51.6,81.35
	v-28.1h17V36.3h69.5v0.6H69.2v16.95h-17V81.6l-0.15,0.25l-30.1,29.95L52.2,141.9v27.75h17v17.1h364.5v-17.1h16.7V139.35
	l27.649-27.55L450.6,84.4z M441.7,29v16.9h16.649V81l31,30.8l-31,30.851V177.6H441.7v17.051H61.25V177.6h-17V145.2l-33.6-33.4
	l33.6-33.5V45.9h17V29h76.85v4.85H66.15V50.8h-17v29.6L17.5,111.8l31.65,31.45v29.45h17v17.05H436.8V172.7h16.65v-32.15l29.05-28.75
	l-29.05-28.75V50.8H436.8V33.85h-75V29H441.7z M244.8,84.8c-1.466,1.367-2.2,3.067-2.2,5.1c0,2.1,0.733,3.85,2.2,5.25
	c1.467,1.434,3.217,2.15,5.25,2.15s3.75-0.716,5.15-2.15c1.467-1.467,2.2-3.217,2.2-5.25s-0.733-3.733-2.2-5.1
	c-1.4-1.466-3.117-2.2-5.15-2.2S246.267,83.333,244.8,84.8z M246.9,86.85c0.867-0.9,1.917-1.35,3.15-1.35c1.233,0,2.3,0.45,3.2,1.35
	c0.8,0.8,1.2,1.816,1.2,3.05c0,1.2-0.4,2.25-1.2,3.15c-0.9,0.9-1.967,1.35-3.2,1.35c-1.233,0-2.283-0.45-3.15-1.35
	c-0.9-0.9-1.35-1.95-1.35-3.15C245.55,88.667,246,87.65,246.9,86.85z"/>
	<text id="ytext" y="160" x="115" fill="#ffffff" font-family="'MyriadPro-Regular'" font-size="45">Vintage label</text>
	<text id="mtext" y="60" x="200" fill="#ffffff" font-family="'MyriadPro-Regular'" font-size="15">small sub title</text>
</g>
</svg>
