
<svg xmlns="http://www.w3.org/2000/svg" version="1.1" xmlns:xlink="http://www.w3.org/1999/xlink" preserveAspectRatio="none" x="0px" y="0px" width="250px" height="95px" viewBox="0 0 250 95">
<defs>
<g id="Layer0_0_FILL">
<path id="bg" fill="#000000" stroke="none" d="
M 250 16.05
Q 250 11 249.9 8.65 249.8 6.3 246.7 5.6 243.6 4.8 237 3.2 230.45 1.55 209.55 0
L 195.1 0.45
Q 154 0.65 141.65 7.2 133.25 9.5 124.75 9.7 117 9.9 109.1 7.5 108.95 7.45 108.9 7.45 96.75 0.65 54.9 0.45
L 40.45 0
Q 19.55 1.55 13 3.2 6.4 4.8 3.3 5.6 0.2 6.3 0.1 8.65 0 11 0 16.05 -0.05 21.15 0.05 28.3 0 30.25 1.65 33.2 3.25 36.05 3.8 37.45 4.3 38.75 4.75 40.8 9.6 63.55 15.85 78.55 22.1 93.5 49.2 94.85 76.3 96.15 89.45 87.3 102.55 78.35 111.85 46.95 113.95 39.9 115 34 119.3 26.85 124.85 26.8 130.75 26.75 135.15 34.95 136.2 40.45 138.15 46.95 147.45 78.35 160.55 87.3 173.75 96.15 200.8 94.85 227.95 93.5 234.15 78.55 240.4 63.55 245.25 40.8 245.7 38.75 246.2 37.45 246.75 36.05 248.35 33.2 250 30.25 249.95 28.3 250.05 21.15 250 16.05
M 227.9 21.85
Q 234.5 31.35 233.75 46.6 233.05 61.8 227.3 73.85 221.45 85.9 197.65 87 173.9 88.05 162.9 78.3 151.95 68.65 146.45 44.85 141 21.1 153.4 17.1 165.9 13.15 193.6 12.7 221.2 12.25 227.9 21.85
M 96.6 17.1
Q 109 21.1 103.55 44.85 98.05 68.65 87.1 78.3 76.15 88.05 52.35 87 28.55 85.9 22.75 73.85 16.95 61.8 16.25 46.6 15.5 31.35 22.15 21.85 28.8 12.25 56.4 12.7 84.1 13.15 96.6 17.1 Z"/>
</g>
</defs>

<g transform="matrix( 1, 0, 0, 1, 0,0) ">
<use xlink:href="#Layer0_0_FILL"/>
</g>
</svg>
